<svg width="400" height="346.3917525773196" xmlns="http://www.w3.org/2000/svg">

 <g>
  <title>background</title>
  <rect fill="none" id="canvas_background" height="402" width="582" y="-1" x="-1"/>
 </g>
 <g>
  <title>Layer 1</title>
  <path fill-rule="evenodd" fill="#241c1c" d="m192.409,26.359c-52.587,3.257 -97.473,31.898 -122.167,77.952c-2.077,3.875 -6.512,13.438 -6.512,14.043c0,0.06 9.814,0.109 21.81,0.109l21.809,0l1.633,-2.577c23.165,-36.567 64.978,-55.608 107.7,-49.047c30.447,4.677 57.56,22.566 74.336,49.047l1.633,2.577l21.809,0c11.996,0 21.81,-0.049 21.81,-0.109c0,-0.06 -0.464,-1.2 -1.032,-2.533c-20.501,-48.189 -64.961,-81.916 -116.588,-88.445c-6.969,-0.881 -20.169,-1.393 -26.241,-1.017m10.64,8.613c1.138,0.388 2.468,1.578 3.099,2.774l0.506,0.961l-0.062,5.529c-0.097,8.719 -0.26,11.367 -0.757,12.332c-2.315,4.494 -9.525,4.188 -11.274,-0.478c-0.685,-1.83 -0.246,-16.828 0.538,-18.362c1.328,-2.599 4.84,-3.816 7.95,-2.756m16.636,1.403c4.648,0.814 5.675,1.368 6.767,3.644c1.452,3.028 -0.686,10.965 -2.954,10.965c-0.211,0 -0.122,0.196 0.312,0.691c0.742,0.845 1.297,2.024 1.306,2.777c0.019,1.496 -1.191,7.404 -1.516,7.404c-0.412,0 -3.2,-0.531 -3.296,-0.628c-0.04,-0.04 0.188,-1.529 0.508,-3.31c0.876,-4.884 0.237,-6.139 -3.18,-6.256l-0.643,-0.022l-0.762,4.25c-0.42,2.338 -0.823,4.309 -0.896,4.382c-0.15,0.148 -3.71,-0.451 -3.71,-0.626c0,-0.216 4.139,-23.378 4.219,-23.61c0.109,-0.316 0.109,-0.316 3.845,0.339m-37.486,0.171c2.566,1.285 3.056,2.513 4.398,11.009c0.481,3.042 -1.281,4.954 -5.231,5.677c-1.125,0.206 -2.065,0.396 -2.09,0.422c-0.025,0.026 0.242,1.646 0.593,3.599c0.351,1.953 0.575,3.608 0.497,3.677c-0.23,0.206 -3.496,0.74 -3.621,0.593c-0.189,-0.224 -4.369,-24.027 -4.241,-24.155c0.065,-0.065 1.575,-0.399 3.357,-0.743c3.699,-0.714 5.036,-0.731 6.338,-0.079m17.148,1.911c-0.98,0.771 -1.038,1.163 -1.246,8.483c-0.137,4.812 -0.135,7.012 0.007,7.54c0.565,2.097 3.425,2.409 4.206,0.459c0.393,-0.984 0.826,-14.358 0.503,-15.558c-0.363,-1.347 -2.283,-1.858 -3.47,-0.924m-21.465,1.135c-0.567,0.102 -1.05,0.203 -1.074,0.224c-0.024,0.021 0.377,2.391 0.89,5.266c0.514,2.875 0.934,5.262 0.934,5.305c0,0.043 0.485,0.021 1.077,-0.048c3.266,-0.381 3.482,-0.931 2.474,-6.312c-0.888,-4.744 -1.138,-5.002 -4.301,-4.435m41.237,0.075c0,0.04 -0.336,1.943 -0.748,4.229c-0.411,2.286 -0.727,4.173 -0.703,4.194c0.611,0.521 3.553,0.547 4.019,0.036c1.004,-1.103 1.946,-5.998 1.363,-7.087c-0.311,-0.581 -3.931,-1.845 -3.931,-1.372m23.16,1.952c5.908,1.984 5.432,1.676 4.932,3.189c-0.541,1.635 -0.474,1.608 -2.388,0.966l-1.693,-0.568l-0.289,0.78c-0.158,0.43 -1.68,4.906 -3.381,9.948c-1.701,5.042 -3.13,9.205 -3.176,9.251c-0.176,0.175 -3.693,-1.124 -3.613,-1.334c0.28,-0.735 6.692,-19.748 6.692,-19.842c0,-0.065 -0.696,-0.345 -1.547,-0.624c-1.992,-0.654 -1.941,-0.581 -1.47,-2.133c0.493,-1.622 -0.102,-1.659 5.933,0.367m-80.075,-0.376c1.411,0.528 2.577,1.608 3.169,2.935c0.925,2.072 0.966,1.963 -1.005,2.648c-0.95,0.331 -1.738,0.579 -1.752,0.552c-0.014,-0.027 -0.23,-0.5 -0.48,-1.05c-1.38,-3.041 -5.194,-2.258 -4.511,0.925c0.806,3.762 2.129,5.12 4.454,4.572c2.758,-0.649 5.695,0.518 6.788,2.696c2.509,5.002 1.823,8.949 -1.841,10.593c-3.86,1.732 -7.326,0.353 -8.6,-3.421l-0.381,-1.129l1.53,-0.506c0.842,-0.279 1.63,-0.543 1.752,-0.588c0.123,-0.045 0.452,0.39 0.742,0.982c1.269,2.591 4.566,2.507 4.566,-0.118c0,-3.195 -1.943,-5.486 -4.279,-5.045c-2.76,0.521 -5.297,-0.293 -6.515,-2.091c-0.951,-1.403 -2.204,-5.444 -2.087,-6.731c0.353,-3.898 4.742,-6.611 8.45,-5.224m-108.783,84.466c-38.005,3.756 -56.641,47.522 -32.814,77.061c7.654,9.488 18.196,15.391 30.939,17.326c2.356,0.357 294.552,0.357 296.908,0c10.958,-1.664 19.631,-5.877 27.058,-13.145c28.158,-27.554 13.207,-74.043 -26.027,-80.934c-1.707,-0.3 -293.08,-0.603 -296.064,-0.308m82.287,12.897c13.38,2.046 17.275,15.156 7.778,26.178c-3.976,4.616 -12.179,9.85 -17.144,10.941c-0.81,0.178 -0.844,0.368 -0.229,1.265c1.986,2.895 3.481,7.668 4.91,15.679c0.411,2.308 0.749,4.374 0.75,4.592c0.015,3.241 4.755,4.731 9.734,3.061c1.523,-0.51 1.52,-0.447 -0.068,1.303c-5.797,6.388 -13.953,6.351 -16.923,-0.076c-1.016,-2.2 -1.33,-4.135 -1.65,-10.171c-0.39,-7.345 -0.756,-9.278 -2.328,-12.319c-0.891,-1.724 -0.632,-1.611 -2.936,-1.276c-1.124,0.163 -2.963,0.358 -4.085,0.432l-2.04,0.136l-1.006,3.842c-3.358,12.829 -5.323,17.231 -8.315,18.629c-2.245,1.049 -6.293,0.477 -8.587,-1.213l-0.808,-0.595l0.935,-0.534c2.084,-1.19 4.503,-5.362 6.221,-10.727c0.982,-3.069 3.169,-9.796 3.305,-10.167c0.041,-0.111 -0.267,-0.356 -0.683,-0.544c-4.253,-1.918 -3.125,-5.896 2.127,-7.499l1.302,-0.398l2.848,-8.424c1.567,-4.634 3.324,-9.763 3.905,-11.399c0.581,-1.636 1.056,-3.051 1.056,-3.145c0,-0.366 -6.113,3.456 -8.243,5.153c-1.121,0.893 -2.16,0.229 -3.456,-2.207c-1.273,-2.396 -0.656,-3.072 5.42,-5.937c7.736,-3.648 20.621,-5.74 28.21,-4.58m74.546,3.389c0.774,0.507 0.808,3.566 0.075,6.833c-0.431,1.92 -0.919,1.633 3.173,1.866c5.68,0.324 12.647,1.588 13.569,2.461c0.542,0.513 0.143,1.694 -0.786,2.326c-0.826,0.561 -1.707,0.601 -4.462,0.199c-4.363,-0.636 -12.951,-0.914 -13.347,-0.432c-0.106,0.129 -0.339,0.738 -0.517,1.352c-0.928,3.205 -8.189,17.988 -10.912,22.216c-0.55,0.855 -0.442,4.004 0.179,5.18c2.914,5.524 10.609,1.976 23.671,-10.913c1.221,-1.205 1.871,-1.482 2.596,-1.106c0.422,0.219 0.5,0.143 1.866,-1.819l1.425,-2.048l-0.817,-0.784c-1.397,-1.342 -1.335,-2.614 0.245,-5.026c2.406,-3.675 5.584,-5.442 8.409,-4.678c2.835,0.767 3.916,4.554 2.113,7.398l-0.536,0.844l0.665,0.219c0.464,0.153 1.329,0.177 2.848,0.078c4.531,-0.295 5.822,0.258 7.093,3.034c1.405,3.07 1.033,4.421 -2.23,8.098c-5.19,5.85 -5.742,6.828 -4.939,8.75c0.622,1.49 3.578,1.449 6.68,-0.093c1.898,-0.942 5.994,-3.756 7.106,-4.881c0.051,-0.052 0.431,-0.376 0.843,-0.721c0.413,-0.344 2.317,-2.178 4.233,-4.076c3.246,-3.216 3.53,-3.451 4.171,-3.451c0.389,0 0.687,-0.093 0.687,-0.213c0,-0.35 1.962,-3.182 2.903,-4.192c0.48,-0.515 1.13,-1.289 1.444,-1.72c2.069,-2.84 7.682,-4.594 11.94,-3.731c6.321,1.281 10.122,5.561 9.688,10.91c-0.071,0.872 -0.054,1.57 0.037,1.57c1.702,0 11.076,-4.359 14.767,-6.866c2.086,-1.417 3.626,-0.802 2.523,1.007c-1.184,1.943 -10.796,7.384 -16.496,9.338c-0.978,0.335 -1.84,0.723 -1.915,0.862c-0.076,0.138 -0.431,0.884 -0.789,1.657c-2.962,6.394 -8.732,10.119 -15.667,10.116c-7.113,-0.002 -10.289,-3.315 -10.373,-10.818c-0.016,-1.468 -0.039,-2.67 -0.051,-2.671c-0.011,0 -1.15,1.127 -2.53,2.505c-10.676,10.656 -19.44,13.877 -24.662,9.065c-2.734,-2.521 -2.557,-5.105 0.646,-9.435c0.694,-0.938 1.895,-2.561 2.668,-3.605c3.681,-4.972 3.604,-6.382 -0.332,-6.125c-1.943,0.127 -3.209,-0.028 -4.57,-0.558c-0.227,-0.089 -0.579,0.218 -1.325,1.157c-0.559,0.703 -2.186,2.754 -3.614,4.559c-3.362,4.245 -6.909,8.69 -7.029,8.809c-0.052,0.052 -0.596,0.727 -1.208,1.5c-2.939,3.712 -3.625,4.311 -4.939,4.311c-2.013,0 -1.804,-0.892 1.329,-5.655c3.977,-6.047 3.868,-5.782 1.429,-3.461c-9.676,9.211 -15.9,11.721 -21.58,8.703c-3.859,-2.05 -4.787,-4.892 -3.601,-11.021c0.249,-1.289 0.453,-2.417 0.454,-2.508c0,-0.09 -1.16,0.964 -2.579,2.343c-11.127,10.821 -23.93,15.569 -32.028,11.879c-9.466,-4.315 -8.207,-16.264 2.56,-24.296c11.351,-8.47 23.784,-3.786 14.916,5.619c-2.073,2.197 -5.642,4.427 -13.234,8.265c-2.985,1.509 -2.876,1.413 -2.741,2.396c0.692,5.05 7.749,6.49 15.018,3.064c4.547,-2.143 9.238,-5.383 14.704,-10.154c1.981,-1.73 2.97,-2.112 3.576,-1.382c0.198,0.238 0.466,-0.617 1.596,-5.108c1.347,-5.351 2.013,-7.799 2.987,-10.986c0.621,-2.032 0.867,-1.874 -2.497,-1.603c-4.401,0.356 -11.153,-0.567 -12.262,-1.675c-0.48,-0.48 -0.034,-1.413 1.047,-2.189l0.784,-0.563l5.061,0.065c5.205,0.066 9.576,-0.196 9.947,-0.598c0.11,-0.119 0.522,-1.06 0.916,-2.091c1.558,-4.074 3.076,-6.694 4.135,-7.136c1.521,-0.636 4.977,-0.734 5.846,-0.166m-85.887,0.188c-0.824,0.155 -2.278,0.501 -3.231,0.77l-1.731,0.489l0.56,0.638c0.705,0.803 0.739,0.483 -0.462,4.357c-1.979,6.384 -5.913,20.217 -5.913,20.791c0,0.102 0.358,0.245 0.796,0.317c1.993,0.326 5.437,1.638 6.771,2.58c0.629,0.444 0.722,0.42 3.773,-0.941c10.214,-4.56 16.263,-13.437 14.716,-21.597c-1.046,-5.515 -7.822,-8.798 -15.279,-7.404m160.206,8.236c0.176,0.071 1.114,1.197 2.086,2.503c2.396,3.218 3.163,4.048 4.204,4.552l0.888,0.43l-0.843,0.254c-1.03,0.312 -5.327,0.201 -6.466,-0.167c-0.857,-0.277 -2.694,-2.033 -3.536,-3.381l-0.538,-0.86l-3.024,1.822c-4.552,2.743 -3.794,2.502 -7.922,2.522c-2.72,0.014 -3.513,-0.033 -3.28,-0.194c0.5,-0.347 10.196,-6.171 11.39,-6.843c1.484,-0.835 5.628,-1.21 7.041,-0.638m-117.094,16.004c-2.97,1.42 -5.947,5.198 -7.31,9.276c-0.624,1.87 -0.664,1.855 1.663,0.624c6.509,-3.445 9.473,-6.19 9.485,-8.784c0.008,-1.692 -1.633,-2.169 -3.838,-1.116m109.372,0.535c-0.948,0.33 -3.132,1.682 -3.561,2.205c-0.345,0.421 -0.344,2.899 0.002,4.134c0.664,2.372 3.117,3.648 7.013,3.648c2.002,0 1.997,0.003 2.456,-1.58c0.878,-3.031 -0.257,-7.463 -2.162,-8.449c-0.702,-0.363 -2.645,-0.341 -3.748,0.042m-200.562,6.238l0,3.936l-25.456,0l-25.455,0l-0.986,-0.491c-2.805,-1.398 -2.805,-5.492 0,-6.89l0.986,-0.491l25.455,0l25.456,0l0,3.936m299.319,-3.445c1.484,0.74 1.993,1.619 1.993,3.445c0,1.826 -0.509,2.705 -1.993,3.445l-0.986,0.491l-25.455,0l-25.456,0l0,-3.936l0,-3.936l25.456,0l25.455,0l0.986,0.491m-263.015,3.562c-0.055,0.193 -0.153,0.614 -0.217,0.935l-0.117,0.584l1.743,-0.263c2.537,-0.382 2.662,-0.464 1.48,-0.973c-1.42,-0.61 -2.759,-0.742 -2.889,-0.283m155.665,3.96c-1.232,4.083 -0.837,7.573 1.044,9.23c2.804,2.467 8.088,0.35 10.799,-4.326c0.658,-1.136 0.695,-1.094 -0.86,-0.98c-3.791,0.28 -7.6,-1.354 -9.728,-4.174c-0.933,-1.236 -0.798,-1.263 -1.255,0.25m-204.528,50.36c0,0.226 2.28,5.447 3.524,8.069c21.547,45.416 64.76,76.775 114.283,82.932c63.34,7.875 123.823,-25.324 151.248,-83.021c1.21,-2.545 3.485,-7.754 3.485,-7.98c0,-0.043 -9.818,-0.079 -21.818,-0.079l-21.817,0l-0.898,1.453c-15.442,24.974 -40.076,42.617 -68.213,48.851c-45.079,9.989 -90.884,-9.425 -115.261,-48.851l-0.898,-1.453l-21.817,0c-12,0 -21.818,0.036 -21.818,0.079m150.591,6.121c-0.794,0.231 -2.253,1.553 -2.749,2.492c-0.93,1.758 -0.652,7.218 0.444,8.707c1.126,1.532 4.494,2.514 5.949,1.736c0.507,-0.272 0.614,2.68 0.139,3.817c-0.79,1.892 -3.417,1.177 -3.625,-0.986l-0.094,-0.973l-1.663,0l-1.663,0l0,0.814c0,5.585 7.564,7.199 10.24,2.185c0.511,-0.956 0.64,-12.907 0.158,-14.58c-0.762,-2.647 -4.025,-4.115 -7.136,-3.212m-34.523,0.469c-2.033,1.012 -2.656,2.293 -2.662,5.468l-0.004,2.296l1.568,0l1.568,0l0.093,-1.734c0.176,-3.26 1.762,-4.717 3.323,-3.055c1.184,1.261 0.899,1.99 -3.549,9.073l-3.378,5.38l0,1.353l0,1.354l5.155,0l5.155,0l0,-1.406l0,-1.406l-3.281,0c-1.804,0 -3.28,-0.035 -3.28,-0.078c0,-0.043 1.364,-2.257 3.03,-4.92c3.338,-5.335 3.635,-5.902 3.82,-7.3c0.523,-3.954 -3.86,-6.868 -7.558,-5.025m12.37,-0.248c-0.835,0.268 -2.215,1.514 -2.719,2.458c-0.489,0.913 -0.753,12.548 -0.328,14.457c1.007,4.536 7.742,5.172 10.004,0.946c0.545,-1.017 0.737,-12.874 0.237,-14.594c-0.796,-2.738 -4.126,-4.25 -7.194,-3.267m11.534,1.708l-1.64,1.55l0,1.929l0,1.928l1.64,-1.552l1.64,-1.553l0.049,8.187l0.049,8.186l1.685,0l1.685,0l0,-10.122l0,-10.122l-1.734,0.009l-1.734,0.01l-1.64,1.55m-7.931,1.429c0.396,0.396 0.714,11.114 0.384,12.909c-0.324,1.757 -2.746,2.16 -3.557,0.592c-0.428,-0.827 -0.419,-12.131 0.01,-12.961c0.561,-1.084 2.318,-1.384 3.163,-0.54m21.634,-0.294c1.419,0.734 1.408,5.942 -0.014,6.938c-0.668,0.468 -1.556,0.368 -2.252,-0.254l-0.612,-0.546l-0.062,-2.434c-0.09,-3.572 0.866,-4.776 2.94,-3.704m-58.581,5.824c-0.946,0.144 -3.645,0.64 -5.998,1.103c-6.354,1.248 -10.974,1.565 -14.213,0.975c-0.309,-0.057 0.07,0.112 0.843,0.374c4.204,1.426 8.823,1.344 17.807,-0.316c6.909,-1.276 11.013,-1.45 14.715,-0.625c0.97,0.217 -1.509,-0.75 -3,-1.169c-2.121,-0.597 -7.329,-0.772 -10.154,-0.342m90.004,-0.002c-0.927,0.143 -3.627,0.64 -5.998,1.104c-6.445,1.263 -11.111,1.581 -14.245,0.971c-1.178,-0.229 0.936,0.483 2.53,0.853c3.692,0.855 8.215,0.662 15.491,-0.661c7.021,-1.276 12.566,-1.605 14.862,-0.88c1.078,0.34 0.859,0.085 -0.302,-0.352c-3.249,-1.223 -8.345,-1.65 -12.338,-1.035m-66.073,42.744c7.073,0.732 8.231,2.303 7.322,9.93c-0.832,6.995 -2.131,8.232 -7.789,7.42c-1.638,-0.235 -1.47,-0.548 -1.947,3.627c-0.222,1.952 -0.424,3.567 -0.448,3.589c-0.353,0.326 -3.787,-0.467 -3.755,-0.866c0.084,-1.039 2.702,-23.362 2.786,-23.754c0.07,-0.324 0.19,-0.403 0.509,-0.335c0.229,0.048 1.724,0.224 3.322,0.389m37.595,1.667c2.216,1.008 3.05,2.499 3.317,5.926c0.215,2.761 -0.034,4.036 -1.005,5.141l-0.572,0.651l0.658,0.577c1.155,1.014 1.449,1.908 1.569,4.764c0.234,5.581 -0.771,6.504 -7.549,6.935c-2.264,0.144 -4.148,0.23 -4.187,0.192c-0.118,-0.117 -1.539,-24.123 -1.433,-24.228c0.589,-0.589 7.888,-0.556 9.202,0.042m-21.719,-0.01c0.066,0.066 -0.025,4.408 -0.203,9.649c-0.393,11.593 -0.382,11.651 2.177,11.651c2.115,0 2.154,-0.176 2.542,-11.621l0.321,-9.466l1.827,-0.054l1.828,-0.053l0,1.647c0,3.564 -0.594,18.368 -0.763,19.014c-1.219,4.653 -8.313,5.632 -11.035,1.522c-1.017,-1.536 -1.02,-1.576 -0.685,-11.392c0.168,-4.948 0.305,-9.494 0.303,-10.1l-0.004,-1.104l1.786,0.094c0.983,0.051 1.84,0.147 1.906,0.213m-16.595,5.03c-0.781,6.619 -0.848,7.268 -0.756,7.36c0.051,0.051 0.805,0.146 1.675,0.212c2.585,0.194 2.821,-0.127 3.374,-4.61c0.69,-5.584 0.554,-5.883 -2.841,-6.273l-1.048,-0.12l-0.404,3.431m33.647,-2.16l-0.718,0.085l0.133,2.097c0.074,1.153 0.186,2.849 0.25,3.77l0.116,1.673l1.296,-0.047c2.722,-0.1 3.225,-0.674 3.166,-3.616c-0.074,-3.684 -0.808,-4.369 -4.243,-3.962m0.382,10.689c-0.382,0.06 -0.5,0.168 -0.437,0.397c0.048,0.173 0.141,1.538 0.206,3.033c0.066,1.495 0.167,2.997 0.225,3.338l0.107,0.62l1.523,-0.129c1.897,-0.16 2.456,-0.43 2.752,-1.328c0.333,-1.011 0.133,-4.333 -0.317,-5.255l-0.349,-0.714l-1.593,-0.022c-0.876,-0.012 -1.829,0.015 -2.117,0.06" id="path1"/>
 </g>
</svg>