<svg width="400" height="346.3917525773196" xmlns="http://www.w3.org/2000/svg">

 <g>
  <title>background</title>
  <rect fill="none" id="canvas_background" height="402" width="582" y="-1" x="-1"/>
 </g>
 <g>
  <title>Layer 1</title>
  <path fill-rule="evenodd" fill="#fbcb2b" d="m196.863,0.289c-2.102,0.566 -4.129,1.855 -6.949,4.419c-8.659,7.871 -14.574,8.626 -23.877,3.044c-8.424,-5.054 -13.707,-3.677 -18.799,4.9c-5.598,9.429 -12.548,12.251 -23.298,9.46c-9.318,-2.419 -13.907,0.264 -16.347,9.558c-1.725,6.574 -4.148,10.467 -8.249,13.255c-2.933,1.994 -5.172,2.566 -11.247,2.873c-10.852,0.548 -14.281,3.534 -14.272,12.43c0.002,2.432 -0.042,2.929 -0.244,2.761c-0.201,-0.167 -0.263,0.237 -0.334,2.189c-0.075,2.045 -0.177,2.668 -0.697,4.269c-2.326,7.155 -5.868,10.019 -15.755,12.737c-7.989,2.197 -10.8,7.215 -8.615,15.379c2.749,10.273 -1.39,20.732 -9.129,23.065c-31.706,9.558 -47.798,44.8 -34.189,74.873c6.347,14.024 19.054,25.254 33.588,29.684c8.043,2.451 12.502,13.285 9.73,23.643c-2.185,8.165 0.623,13.178 8.615,15.38c9.896,2.727 13.43,5.584 15.755,12.737c0.52,1.601 0.622,2.223 0.697,4.268c0.071,1.953 0.133,2.357 0.334,2.19c0.202,-0.168 0.246,0.329 0.244,2.76c-0.009,8.896 3.42,11.883 14.272,12.431c6.075,0.307 8.314,0.879 11.247,2.873c4.101,2.788 6.524,6.681 8.249,13.255c2.44,9.294 7.029,11.977 16.347,9.557c10.75,-2.791 17.7,0.032 23.298,9.46c5.092,8.578 10.375,9.955 18.799,4.901c9.303,-5.582 15.218,-4.828 23.877,3.044c7.148,6.498 12.661,6.48 19.833,-0.067c8.391,-7.66 14.703,-8.525 23.417,-3.211c3.607,2.2 5.462,2.911 7.989,3.059c4.854,0.287 7.423,-1.602 11.727,-8.623c5.258,-8.576 12.503,-11.306 22.735,-8.564c9.191,2.462 13.956,-0.343 16.403,-9.658c1.42,-5.405 2.871,-8.216 5.719,-11.079c3.522,-3.541 6.442,-4.583 13.884,-4.951c10.691,-0.53 14.152,-3.632 14.152,-12.685c0,-2.098 0.045,-2.516 0.263,-2.433c0.216,0.083 0.277,-0.346 0.337,-2.37c0.253,-8.553 5.099,-13.775 15.417,-16.613c9.086,-2.5 12.02,-7.332 9.575,-15.774c-2.907,-10.041 1.683,-21.001 9.809,-23.423c27.765,-8.274 44.31,-37.573 37.145,-65.779c-4.769,-18.771 -19.959,-34.262 -38.431,-39.19c-6.99,-1.865 -11.255,-13.198 -8.522,-22.646c2.442,-8.445 -0.49,-13.275 -9.576,-15.774c-10.318,-2.838 -15.164,-8.06 -15.417,-16.614c-0.06,-2.023 -0.121,-2.452 -0.337,-2.37c-0.218,0.084 -0.263,-0.335 -0.263,-2.433c0,-9.052 -3.461,-12.154 -14.152,-12.684c-11.621,-0.576 -16.616,-4.66 -19.603,-16.031c-2.447,-9.314 -7.212,-12.12 -16.403,-9.657c-10.232,2.742 -17.477,0.012 -22.735,-8.565c-4.304,-7.02 -6.873,-8.909 -11.727,-8.623c-2.527,0.149 -4.382,0.86 -7.989,3.059c-8.714,5.315 -15.026,4.449 -23.417,-3.21c-4.686,-4.277 -8.599,-5.64 -12.884,-4.486m15.508,26.406c50.516,4.653 93.507,33.079 117.387,77.616c2.077,3.875 6.512,13.438 6.512,14.043c0,0.06 -9.814,0.109 -21.81,0.109l-21.809,0l-1.633,-2.577c-23.165,-36.567 -64.978,-55.608 -107.7,-49.047c-30.447,4.677 -57.56,22.566 -74.336,49.047l-1.633,2.577l-21.809,0c-11.996,0 -21.81,-0.049 -21.81,-0.109c0,-0.605 4.435,-10.168 6.512,-14.043c24.694,-46.054 69.58,-74.695 122.167,-77.952c2.966,-0.183 16.862,0.05 19.962,0.336m-14.546,8.431c-2.29,1.066 -3.077,2.469 -3.271,5.83c-0.418,7.241 -0.415,14.007 0.007,15.134c1.749,4.666 8.959,4.972 11.274,0.478c0.497,-0.965 0.66,-3.613 0.757,-12.332l0.062,-5.529l-0.506,-0.961c-1.446,-2.739 -5.396,-3.983 -8.323,-2.62m18.015,0.91c-0.08,0.232 -4.219,23.394 -4.219,23.61c0,0.175 3.56,0.774 3.71,0.626c0.073,-0.073 0.476,-2.044 0.896,-4.382l0.762,-4.25l0.643,0.022c3.417,0.117 4.056,1.372 3.18,6.256c-0.32,1.781 -0.548,3.27 -0.508,3.31c0.096,0.097 2.884,0.628 3.296,0.628c0.325,0 1.535,-5.908 1.516,-7.404c-0.009,-0.753 -0.564,-1.932 -1.306,-2.777c-0.434,-0.495 -0.523,-0.691 -0.312,-0.691c2.268,0 4.406,-7.937 2.954,-10.965c-1.092,-2.276 -2.119,-2.83 -6.767,-3.644c-3.736,-0.655 -3.736,-0.655 -3.845,-0.339m-39.979,0.589c-1.782,0.344 -3.292,0.678 -3.357,0.743c-0.128,0.128 4.052,23.931 4.241,24.155c0.125,0.147 3.391,-0.387 3.621,-0.593c0.078,-0.069 -0.146,-1.724 -0.497,-3.677c-0.351,-1.953 -0.618,-3.573 -0.593,-3.599c0.025,-0.026 0.965,-0.216 2.09,-0.422c3.95,-0.723 5.712,-2.635 5.231,-5.677c-1.797,-11.379 -2.851,-12.452 -10.736,-10.93m26.341,1.714c0.777,0.544 0.831,1.323 0.614,8.825c-0.163,5.635 -0.263,7.177 -0.502,7.775c-0.781,1.95 -3.641,1.638 -4.206,-0.459c-0.302,-1.12 0.092,-14.109 0.454,-14.975c0.557,-1.333 2.509,-1.958 3.64,-1.166m-21.739,1.224c0.807,0.282 1.06,0.937 1.72,4.464c1.008,5.381 0.792,5.931 -2.474,6.312c-0.592,0.069 -1.077,0.091 -1.077,0.048c0,-0.043 -0.42,-2.43 -0.934,-5.305c-0.513,-2.875 -0.914,-5.245 -0.89,-5.266c0.08,-0.073 2.101,-0.409 2.592,-0.431c0.268,-0.012 0.747,0.068 1.063,0.178m41.823,0.821c1.089,0.563 1.185,1.336 0.568,4.538c-0.693,3.586 -1.232,4.031 -4.147,3.416c-0.547,-0.116 -1.014,-0.227 -1.039,-0.248c-0.024,-0.021 0.292,-1.908 0.703,-4.194c0.412,-2.286 0.748,-4.189 0.748,-4.229c0,-0.157 2.628,0.438 3.167,0.717m14.06,0.868c-0.471,1.552 -0.522,1.479 1.47,2.133c0.851,0.279 1.547,0.559 1.547,0.624c0,0.094 -6.412,19.107 -6.692,19.842c-0.08,0.21 3.437,1.509 3.613,1.334c0.046,-0.046 1.475,-4.209 3.176,-9.251c1.701,-5.042 3.223,-9.518 3.381,-9.948l0.289,-0.78l1.693,0.568c1.914,0.642 1.847,0.669 2.388,-0.966c0.5,-1.513 0.976,-1.205 -4.932,-3.189c-6.035,-2.026 -5.44,-1.989 -5.933,-0.367m-77.958,-0.036c-4.274,1.382 -5.479,4.054 -3.928,8.717c1.556,4.681 3.714,6.145 7.896,5.356c2.336,-0.441 4.279,1.85 4.279,5.045c0,2.625 -3.297,2.709 -4.566,0.118c-0.29,-0.592 -0.619,-1.027 -0.742,-0.982c-0.122,0.045 -0.91,0.309 -1.752,0.588l-1.53,0.506l0.381,1.129c1.274,3.774 4.74,5.153 8.6,3.421c3.664,-1.644 4.35,-5.591 1.841,-10.593c-1.093,-2.178 -4.03,-3.345 -6.788,-2.696c-2.325,0.548 -3.648,-0.81 -4.454,-4.572c-0.683,-3.183 3.131,-3.966 4.511,-0.925c0.25,0.55 0.466,1.023 0.48,1.05c0.014,0.027 0.802,-0.221 1.752,-0.552c1.971,-0.685 1.93,-0.576 1.005,-2.648c-1.177,-2.636 -4.125,-3.887 -6.985,-2.962m191.097,84.801c39.234,6.891 54.185,53.38 26.027,80.934c-7.427,7.268 -16.1,11.481 -27.058,13.145c-2.356,0.357 -294.552,0.357 -296.908,0c-10.958,-1.664 -19.631,-5.877 -27.058,-13.145c-29.067,-28.444 -11.694,-77.227 28.933,-81.242c2.984,-0.295 294.357,0.008 296.064,0.308m-223.993,12.526c-7.729,0.737 -14.905,2.872 -21.608,6.427c-2.789,1.48 -3.004,3.125 -0.746,5.727c1.149,1.324 1.434,1.399 2.396,0.633c2.13,-1.697 8.243,-5.519 8.243,-5.153c0,0.094 -0.475,1.509 -1.056,3.145c-0.581,1.636 -2.338,6.765 -3.905,11.399l-2.848,8.424l-1.302,0.398c-5.252,1.603 -6.38,5.581 -2.127,7.499c0.416,0.188 0.724,0.433 0.683,0.544c-0.136,0.371 -2.323,7.098 -3.305,10.167c-1.718,5.365 -4.137,9.537 -6.221,10.727l-0.935,0.534l0.808,0.595c2.294,1.69 6.342,2.262 8.587,1.213c2.992,-1.398 4.957,-5.8 8.315,-18.629l1.006,-3.842l2.04,-0.136c1.122,-0.074 2.961,-0.269 4.085,-0.432c2.304,-0.335 2.045,-0.448 2.936,1.276c1.572,3.041 1.938,4.974 2.328,12.319c0.32,6.036 0.634,7.971 1.65,10.171c2.97,6.427 11.126,6.464 16.923,0.076c1.588,-1.75 1.591,-1.813 0.068,-1.303c-4.979,1.67 -9.719,0.18 -9.734,-3.061c-0.001,-0.218 -0.339,-2.284 -0.75,-4.592c-1.429,-8.011 -2.924,-12.784 -4.91,-15.679c-0.615,-0.897 -0.581,-1.087 0.229,-1.265c2.22,-0.488 7.111,-2.854 10.303,-4.984c14.295,-9.539 16.32,-24.487 4.147,-30.617c-3.219,-1.621 -8.814,-2.199 -15.3,-1.581m80.719,3.182c-2.67,0.405 -3.698,1.716 -5.938,7.572c-0.394,1.031 -0.806,1.972 -0.916,2.091c-0.371,0.402 -4.742,0.664 -9.947,0.598l-5.061,-0.065l-0.784,0.563c-1.081,0.776 -1.527,1.709 -1.047,2.189c1.109,1.108 7.861,2.031 12.262,1.675c3.364,-0.271 3.118,-0.429 2.497,1.603c-0.974,3.187 -1.64,5.635 -2.987,10.986c-1.13,4.491 -1.398,5.346 -1.596,5.108c-0.606,-0.73 -1.595,-0.348 -3.576,1.382c-5.466,4.771 -10.157,8.011 -14.704,10.154c-7.269,3.426 -14.326,1.986 -15.018,-3.064c-0.135,-0.983 -0.244,-0.887 2.741,-2.396c10.57,-5.344 14.323,-8.191 15.761,-11.957c2.847,-7.454 -8.375,-8.693 -17.443,-1.927c-10.767,8.032 -12.026,19.981 -2.56,24.296c8.098,3.69 20.901,-1.058 32.028,-11.879c1.419,-1.379 2.579,-2.433 2.579,-2.343c-0.001,0.091 -0.205,1.219 -0.454,2.508c-1.186,6.129 -0.258,8.971 3.601,11.021c5.68,3.018 11.904,0.508 21.58,-8.703c2.439,-2.321 2.548,-2.586 -1.429,3.461c-3.133,4.763 -3.342,5.655 -1.329,5.655c1.314,0 2,-0.599 4.939,-4.311c0.612,-0.773 1.156,-1.448 1.208,-1.5c0.12,-0.119 3.667,-4.564 7.029,-8.809c1.428,-1.805 3.055,-3.856 3.614,-4.559c0.746,-0.939 1.098,-1.246 1.325,-1.157c1.361,0.53 2.627,0.685 4.57,0.558c3.936,-0.257 4.013,1.153 0.332,6.125c-0.773,1.044 -1.974,2.667 -2.668,3.605c-3.203,4.33 -3.38,6.914 -0.646,9.435c5.222,4.812 13.986,1.591 24.662,-9.065c1.38,-1.378 2.519,-2.505 2.53,-2.505c0.012,0.001 0.035,1.203 0.051,2.671c0.084,7.503 3.26,10.816 10.373,10.818c6.935,0.003 12.705,-3.722 15.667,-10.116c0.358,-0.773 0.713,-1.519 0.789,-1.657c0.075,-0.139 0.937,-0.527 1.915,-0.862c5.7,-1.954 15.312,-7.395 16.496,-9.338c1.103,-1.809 -0.437,-2.424 -2.523,-1.007c-3.691,2.507 -13.065,6.866 -14.767,6.866c-0.091,0 -0.108,-0.698 -0.037,-1.57c0.434,-5.349 -3.367,-9.629 -9.688,-10.91c-4.258,-0.863 -9.871,0.891 -11.94,3.731c-0.314,0.431 -0.964,1.205 -1.444,1.72c-0.941,1.01 -2.903,3.842 -2.903,4.192c0,0.12 -0.298,0.213 -0.687,0.213c-0.641,0 -0.925,0.235 -4.171,3.451c-1.916,1.898 -3.82,3.732 -4.233,4.076c-0.412,0.345 -0.792,0.669 -0.843,0.721c-1.112,1.125 -5.208,3.939 -7.106,4.881c-3.102,1.542 -6.058,1.583 -6.68,0.093c-0.803,-1.922 -0.251,-2.9 4.939,-8.75c3.263,-3.677 3.635,-5.028 2.23,-8.098c-1.271,-2.776 -2.562,-3.329 -7.093,-3.034c-1.519,0.099 -2.384,0.075 -2.848,-0.078l-0.665,-0.219l0.536,-0.844c1.803,-2.844 0.722,-6.631 -2.113,-7.398c-2.825,-0.764 -6.003,1.003 -8.409,4.678c-1.58,2.412 -1.642,3.684 -0.245,5.026l0.817,0.784l-1.425,2.048c-1.366,1.962 -1.444,2.038 -1.866,1.819c-0.725,-0.376 -1.375,-0.099 -2.596,1.106c-13.062,12.889 -20.757,16.437 -23.671,10.913c-0.621,-1.176 -0.729,-4.325 -0.179,-5.18c2.723,-4.228 9.984,-19.011 10.912,-22.216c0.178,-0.614 0.411,-1.223 0.517,-1.352c0.396,-0.482 8.984,-0.204 13.347,0.432c2.755,0.402 3.636,0.362 4.462,-0.199c0.929,-0.632 1.328,-1.813 0.786,-2.326c-0.922,-0.873 -7.889,-2.137 -13.569,-2.461c-4.092,-0.233 -3.604,0.054 -3.173,-1.866c0.733,-3.267 0.699,-6.326 -0.075,-6.833c-0.551,-0.36 -2.566,-0.494 -4.043,-0.27m-74.44,0.616c6.281,1.334 9.08,6.017 7.686,12.856c-1.378,6.761 -6.508,12.407 -14.527,15.987c-3.051,1.361 -3.144,1.385 -3.773,0.941c-1.334,-0.942 -4.778,-2.254 -6.771,-2.58c-0.438,-0.072 -0.796,-0.215 -0.796,-0.317c0,-0.574 3.934,-14.407 5.913,-20.791c1.201,-3.874 1.167,-3.554 0.462,-4.357l-0.56,-0.638l1.731,-0.489c3.899,-1.101 7.386,-1.302 10.635,-0.612m147.704,7.962c-0.464,0.074 -1.338,0.414 -1.943,0.754c-1.194,0.672 -10.89,6.496 -11.39,6.843c-0.233,0.161 0.56,0.208 3.28,0.194c4.128,-0.02 3.37,0.221 7.922,-2.522l3.024,-1.822l0.538,0.86c0.842,1.348 2.679,3.104 3.536,3.381c1.139,0.368 5.436,0.479 6.466,0.167l0.843,-0.254l-0.888,-0.43c-1.041,-0.504 -1.808,-1.334 -4.204,-4.552c-0.972,-1.306 -1.91,-2.432 -2.086,-2.503c-0.47,-0.19 -4.123,-0.274 -5.098,-0.116m-108.647,15.971c1.76,1.385 -0.657,5.089 -5.106,7.825c-2.381,1.464 -5.821,3.296 -5.949,3.168c-0.173,-0.173 0.875,-3.015 1.628,-4.417c2.656,-4.944 7.344,-8.214 9.427,-6.576m109.771,0.642c1.905,0.986 3.04,5.418 2.162,8.449c-0.459,1.583 -0.454,1.58 -2.456,1.58c-5.046,0 -7.194,-1.76 -7.27,-5.954c-0.031,-1.745 0.027,-1.843 1.754,-2.955c2.084,-1.342 4.486,-1.805 5.81,-1.12m-256.207,2.835c-2.805,1.398 -2.805,5.492 0,6.89l0.986,0.491l25.455,0l25.456,0l0,-3.936l0,-3.936l-25.456,0l-25.455,0l-0.986,0.491m299.319,3.445l0,3.936l25.456,0l25.455,0l0.986,-0.491c1.484,-0.74 1.993,-1.619 1.993,-3.445c0,-1.826 -0.509,-2.705 -1.993,-3.445l-0.986,-0.491l-25.455,0l-25.456,0l0,3.936m-208.229,0.4c1.182,0.509 1.057,0.591 -1.48,0.973l-1.743,0.263l0.117,-0.584c0.265,-1.321 0.239,-1.296 1.222,-1.18c0.498,0.059 1.346,0.297 1.884,0.528m154.031,3.427c2.128,2.82 5.937,4.454 9.728,4.174c1.555,-0.114 1.518,-0.156 0.86,0.98c-2.711,4.676 -7.995,6.793 -10.799,4.326c-1.881,-1.657 -2.276,-5.147 -1.044,-9.23c0.457,-1.513 0.322,-1.486 1.255,-0.25m-161.25,51.984c15.442,24.974 40.076,42.617 68.213,48.851c45.079,9.989 90.884,-9.425 115.261,-48.851l0.898,-1.453l21.817,0c12,0 21.818,0.036 21.818,0.079c0,0.226 -2.275,5.435 -3.485,7.98c-30.138,63.404 -99.789,96.535 -168.012,79.92c-40.232,-9.799 -75.114,-37.087 -94.609,-74.015c-2.207,-4.18 -6.434,-13.302 -6.434,-13.885c0,-0.043 9.818,-0.079 21.818,-0.079l21.817,0l0.898,1.453m110.178,4.775c1.211,0.362 2.637,1.867 3.016,3.184c0.482,1.673 0.353,13.624 -0.158,14.58c-2.676,5.014 -10.24,3.4 -10.24,-2.185l0,-0.814l1.663,0l1.663,0l0.094,0.973c0.208,2.163 2.835,2.878 3.625,0.986c0.475,-1.137 0.368,-4.089 -0.139,-3.817c-1.455,0.778 -4.823,-0.204 -5.949,-1.736c-1.096,-1.489 -1.374,-6.949 -0.444,-8.707c1.193,-2.258 4.085,-3.295 6.869,-2.464m-33.898,0.31c1.789,0.812 3.076,3.171 2.813,5.156c-0.185,1.398 -0.482,1.965 -3.82,7.3c-1.666,2.663 -3.03,4.877 -3.03,4.92c0,0.043 1.476,0.078 3.28,0.078l3.281,0l0,1.406l0,1.406l-5.155,0l-5.155,0l0,-1.354l0,-1.353l3.378,-5.38c4.448,-7.083 4.733,-7.812 3.549,-9.073c-1.561,-1.662 -3.147,-0.205 -3.323,3.055l-0.093,1.734l-1.568,0l-1.568,0l0.004,-2.296c0.006,-3.175 0.629,-4.456 2.662,-5.468c1.234,-0.616 3.539,-0.679 4.745,-0.131m12.187,0.092c1.206,0.562 2.264,1.79 2.632,3.058c0.5,1.72 0.308,13.577 -0.237,14.594c-2.262,4.226 -8.997,3.59 -10.004,-0.946c-0.425,-1.909 -0.161,-13.544 0.328,-14.457c1.294,-2.42 4.673,-3.463 7.281,-2.249m12.08,10.052l0,10.122l-1.685,0l-1.685,0l-0.049,-8.186l-0.049,-8.187l-1.64,1.553l-1.64,1.552l0,-1.928l0,-1.929l1.64,-1.55l1.64,-1.55l1.734,-0.01l1.734,-0.009l0,10.122m-15.311,-7.42c-1.144,0.515 -1.184,0.763 -1.184,7.326c0,7.173 0.064,7.404 2.058,7.404c1.816,0 1.914,-0.43 1.841,-8.101c-0.054,-5.715 -0.072,-5.962 -0.443,-6.333c-0.502,-0.501 -1.52,-0.634 -2.272,-0.296m21.928,-0.075c-0.826,0.332 -1.029,1.13 -0.962,3.781l0.062,2.434l0.612,0.546c1.828,1.633 3.23,0.21 3.23,-3.278c0,-3.22 -0.913,-4.301 -2.942,-3.483m-46.449,6.243c1.491,0.419 3.97,1.386 3,1.169c-3.702,-0.825 -7.806,-0.651 -14.715,0.625c-8.984,1.66 -13.603,1.742 -17.807,0.316c-0.773,-0.262 -1.152,-0.431 -0.843,-0.374c3.239,0.59 7.859,0.273 14.213,-0.975c8.031,-1.579 12.497,-1.789 16.152,-0.761m89.691,-0.1c1.599,0.433 3.623,1.166 3.515,1.274c-0.04,0.039 -0.362,-0.02 -0.716,-0.131c-2.296,-0.725 -7.841,-0.396 -14.862,0.88c-7.276,1.323 -11.799,1.516 -15.491,0.661c-1.594,-0.37 -3.708,-1.082 -2.53,-0.853c3.134,0.61 7.8,0.292 14.245,-0.971c7.786,-1.524 12.445,-1.777 15.839,-0.86m-79.745,42.446c-0.084,0.392 -2.702,22.715 -2.786,23.754c-0.032,0.399 3.402,1.192 3.755,0.866c0.024,-0.022 0.226,-1.637 0.448,-3.589c0.477,-4.175 0.309,-3.862 1.947,-3.627c5.658,0.812 6.957,-0.425 7.789,-7.42c0.909,-7.627 -0.249,-9.198 -7.322,-9.93c-1.598,-0.165 -3.093,-0.341 -3.322,-0.389c-0.319,-0.068 -0.439,0.011 -0.509,0.335m35.462,1.348c-1.727,0.128 -3.184,0.277 -3.238,0.331c-0.106,0.105 1.315,24.111 1.433,24.228c0.328,0.322 8.391,-0.496 9.309,-0.945c3.022,-1.479 3.577,-8.559 0.858,-10.946l-0.658,-0.577l0.572,-0.651c1.779,-2.026 1.401,-7.823 -0.646,-9.906c-1.578,-1.605 -2.95,-1.881 -7.63,-1.534m-19.443,1.16c0.002,0.606 -0.135,5.152 -0.303,10.1c-0.335,9.816 -0.332,9.856 0.685,11.392c2.722,4.11 9.816,3.131 11.035,-1.522c0.169,-0.646 0.763,-15.45 0.763,-19.014l0,-1.647l-1.828,0.053l-1.827,0.054l-0.321,9.466c-0.388,11.445 -0.427,11.621 -2.542,11.621c-2.559,0 -2.57,-0.058 -2.177,-11.651c0.178,-5.241 0.269,-9.583 0.203,-9.649c-0.066,-0.066 -0.923,-0.162 -1.906,-0.213l-1.786,-0.094l0.004,1.104m-9.714,1.218c1.557,0.394 1.696,1.151 1.1,5.977c-0.553,4.483 -0.789,4.804 -3.374,4.61c-0.87,-0.066 -1.624,-0.161 -1.675,-0.212c-0.092,-0.092 -0.025,-0.741 0.756,-7.36l0.404,-3.431l1.048,0.12c0.577,0.067 1.36,0.2 1.741,0.296m33.796,1.179c0.603,0.396 0.856,1.417 0.901,3.638c0.059,2.942 -0.444,3.516 -3.166,3.616l-1.296,0.047l-0.116,-1.673c-0.064,-0.921 -0.176,-2.617 -0.25,-3.77l-0.133,-2.097l0.718,-0.085c1.229,-0.146 2.867,0.013 3.342,0.324m1.099,11.041c0.45,0.922 0.65,4.244 0.317,5.255c-0.296,0.898 -0.855,1.168 -2.752,1.328l-1.523,0.129l-0.107,-0.62c-0.058,-0.341 -0.159,-1.843 -0.225,-3.338c-0.065,-1.495 -0.158,-2.86 -0.206,-3.033c-0.11,-0.395 0.4,-0.487 2.554,-0.457l1.593,0.022l0.349,0.714" id="path0"/>
 </g>
</svg>