<svg id="svg" xmlns="http://www.w3.org/2000/svg" xmlns:xlink="http://www.w3.org/1999/xlink" width="400" height="346.3917525773196" viewBox="0, 0, 400,346.3917525773196"><g id="svgg"><path id="path0" d="M196.863 0.289 C 194.761 0.855,192.734 2.144,189.914 4.708 C 181.255 12.579,175.340 13.334,166.037 7.752 C 157.613 2.698,152.330 4.075,147.238 12.652 C 141.640 22.081,134.690 24.903,123.940 22.112 C 114.622 19.693,110.033 22.376,107.593 31.670 C 105.868 38.244,103.445 42.137,99.344 44.925 C 96.411 46.919,94.172 47.491,88.097 47.798 C 77.245 48.346,73.816 51.332,73.825 60.228 C 73.827 62.660,73.783 63.157,73.581 62.989 C 73.380 62.822,73.318 63.226,73.247 65.178 C 73.172 67.223,73.070 67.846,72.550 69.447 C 70.224 76.602,66.682 79.466,56.795 82.184 C 48.806 84.381,45.995 89.399,48.180 97.563 C 50.929 107.836,46.790 118.295,39.051 120.628 C 7.345 130.186,-8.747 165.428,4.862 195.501 C 11.209 209.525,23.916 220.755,38.450 225.185 C 46.493 227.636,50.952 238.470,48.180 248.828 C 45.995 256.993,48.803 262.006,56.795 264.208 C 66.691 266.935,70.225 269.792,72.550 276.945 C 73.070 278.546,73.172 279.168,73.247 281.213 C 73.318 283.166,73.380 283.570,73.581 283.403 C 73.783 283.235,73.827 283.732,73.825 286.163 C 73.816 295.059,77.245 298.046,88.097 298.594 C 94.172 298.901,96.411 299.473,99.344 301.467 C 103.445 304.255,105.868 308.148,107.593 314.722 C 110.033 324.016,114.622 326.699,123.940 324.279 C 134.690 321.488,141.640 324.311,147.238 333.739 C 152.330 342.317,157.613 343.694,166.037 338.640 C 175.340 333.058,181.255 333.812,189.914 341.684 C 197.062 348.182,202.575 348.164,209.747 341.617 C 218.138 333.957,224.450 333.092,233.164 338.406 C 236.771 340.606,238.626 341.317,241.153 341.465 C 246.007 341.752,248.576 339.863,252.880 332.842 C 258.138 324.266,265.383 321.536,275.615 324.278 C 284.806 326.740,289.571 323.935,292.018 314.620 C 293.438 309.215,294.889 306.404,297.737 303.541 C 301.259 300.000,304.179 298.958,311.621 298.590 C 322.312 298.060,325.773 294.958,325.773 285.905 C 325.773 283.807,325.818 283.389,326.036 283.472 C 326.252 283.555,326.313 283.126,326.373 281.102 C 326.626 272.549,331.472 267.327,341.790 264.489 C 350.876 261.989,353.810 257.157,351.365 248.715 C 348.458 238.674,353.048 227.714,361.174 225.292 C 388.939 217.018,405.484 187.719,398.319 159.513 C 393.550 140.742,378.360 125.251,359.888 120.323 C 352.898 118.458,348.633 107.125,351.366 97.677 C 353.808 89.232,350.876 84.402,341.790 81.903 C 331.472 79.065,326.626 73.843,326.373 65.289 C 326.313 63.266,326.252 62.837,326.036 62.919 C 325.818 63.003,325.773 62.584,325.773 60.486 C 325.773 51.434,322.312 48.332,311.621 47.802 C 300.000 47.226,295.005 43.142,292.018 31.771 C 289.571 22.457,284.806 19.651,275.615 22.114 C 265.383 24.856,258.138 22.126,252.880 13.549 C 248.576 6.529,246.007 4.640,241.153 4.926 C 238.626 5.075,236.771 5.786,233.164 7.985 C 224.450 13.300,218.138 12.434,209.747 4.775 C 205.061 0.498,201.148 -0.865,196.863 0.289 M212.371 26.695 C 262.887 31.348,305.878 59.774,329.758 104.311 C 331.835 108.186,336.270 117.749,336.270 118.354 C 336.270 118.414,326.456 118.463,314.460 118.463 L 292.651 118.463 291.018 115.886 C 267.853 79.319,226.040 60.278,183.318 66.839 C 152.871 71.516,125.758 89.405,108.982 115.886 L 107.349 118.463 85.540 118.463 C 73.544 118.463,63.730 118.414,63.730 118.354 C 63.730 117.749,68.165 108.186,70.242 104.311 C 94.936 58.257,139.822 29.616,192.409 26.359 C 195.375 26.176,209.271 26.409,212.371 26.695 M197.825 35.126 C 195.535 36.192,194.748 37.595,194.554 40.956 C 194.136 48.197,194.139 54.963,194.561 56.090 C 196.310 60.756,203.520 61.062,205.835 56.568 C 206.332 55.603,206.495 52.955,206.592 44.236 L 206.654 38.707 206.148 37.746 C 204.702 35.007,200.752 33.763,197.825 35.126 M215.840 36.036 C 215.760 36.268,211.621 59.430,211.621 59.646 C 211.621 59.821,215.181 60.420,215.331 60.272 C 215.404 60.199,215.807 58.228,216.227 55.890 L 216.989 51.640 217.632 51.662 C 221.049 51.779,221.688 53.034,220.812 57.918 C 220.492 59.699,220.264 61.188,220.304 61.228 C 220.400 61.325,223.188 61.856,223.600 61.856 C 223.925 61.856,225.135 55.948,225.116 54.452 C 225.107 53.699,224.552 52.520,223.810 51.675 C 223.376 51.180,223.287 50.984,223.498 50.984 C 225.766 50.984,227.904 43.047,226.452 40.019 C 225.360 37.743,224.333 37.189,219.685 36.375 C 215.949 35.720,215.949 35.720,215.840 36.036 M175.861 36.625 C 174.079 36.969,172.569 37.303,172.504 37.368 C 172.376 37.496,176.556 61.299,176.745 61.523 C 176.870 61.670,180.136 61.136,180.366 60.930 C 180.444 60.861,180.220 59.206,179.869 57.253 C 179.518 55.300,179.251 53.680,179.276 53.654 C 179.301 53.628,180.241 53.438,181.366 53.232 C 185.316 52.509,187.078 50.597,186.597 47.555 C 184.800 36.176,183.746 35.103,175.861 36.625 M202.202 38.339 C 202.979 38.883,203.033 39.662,202.816 47.164 C 202.653 52.799,202.553 54.341,202.314 54.939 C 201.533 56.889,198.673 56.577,198.108 54.480 C 197.806 53.360,198.200 40.371,198.562 39.505 C 199.119 38.172,201.071 37.547,202.202 38.339 M180.463 39.563 C 181.270 39.845,181.523 40.500,182.183 44.027 C 183.191 49.408,182.975 49.958,179.709 50.339 C 179.117 50.408,178.632 50.430,178.632 50.387 C 178.632 50.344,178.212 47.957,177.698 45.082 C 177.185 42.207,176.784 39.837,176.808 39.816 C 176.888 39.743,178.909 39.407,179.400 39.385 C 179.668 39.373,180.147 39.453,180.463 39.563 M222.286 40.384 C 223.375 40.947,223.471 41.720,222.854 44.922 C 222.161 48.508,221.622 48.953,218.707 48.338 C 218.160 48.222,217.693 48.111,217.668 48.090 C 217.644 48.069,217.960 46.182,218.371 43.896 C 218.783 41.610,219.119 39.707,219.119 39.667 C 219.119 39.510,221.747 40.105,222.286 40.384 M236.346 41.252 C 235.875 42.804,235.824 42.731,237.816 43.385 C 238.667 43.664,239.363 43.944,239.363 44.009 C 239.363 44.103,232.951 63.116,232.671 63.851 C 232.591 64.061,236.108 65.360,236.284 65.185 C 236.330 65.139,237.759 60.976,239.460 55.934 C 241.161 50.892,242.683 46.416,242.841 45.986 L 243.130 45.206 244.823 45.774 C 246.737 46.416,246.670 46.443,247.211 44.808 C 247.711 43.295,248.187 43.603,242.279 41.619 C 236.244 39.593,236.839 39.630,236.346 41.252 M158.388 41.216 C 154.114 42.598,152.909 45.270,154.460 49.933 C 156.016 54.614,158.174 56.078,162.356 55.289 C 164.692 54.848,166.635 57.139,166.635 60.334 C 166.635 62.959,163.338 63.043,162.069 60.452 C 161.779 59.860,161.450 59.425,161.327 59.470 C 161.205 59.515,160.417 59.779,159.575 60.058 L 158.045 60.564 158.426 61.693 C 159.700 65.467,163.166 66.846,167.026 65.114 C 170.690 63.470,171.376 59.523,168.867 54.521 C 167.774 52.343,164.837 51.176,162.079 51.825 C 159.754 52.373,158.431 51.015,157.625 47.253 C 156.942 44.070,160.756 43.287,162.136 46.328 C 162.386 46.878,162.602 47.351,162.616 47.378 C 162.630 47.405,163.418 47.157,164.368 46.826 C 166.339 46.141,166.298 46.250,165.373 44.178 C 164.196 41.542,161.248 40.291,158.388 41.216 M349.485 126.017 C 388.719 132.908,403.670 179.397,375.512 206.951 C 368.085 214.219,359.412 218.432,348.454 220.096 C 346.098 220.453,53.902 220.453,51.546 220.096 C 40.588 218.432,31.915 214.219,24.488 206.951 C -4.579 178.507,12.794 129.724,53.421 125.709 C 56.405 125.414,347.778 125.717,349.485 126.017 M125.492 138.543 C 117.763 139.280,110.587 141.415,103.884 144.970 C 101.095 146.450,100.880 148.095,103.138 150.697 C 104.287 152.021,104.572 152.096,105.534 151.330 C 107.664 149.633,113.777 145.811,113.777 146.177 C 113.777 146.271,113.302 147.686,112.721 149.322 C 112.140 150.958,110.383 156.087,108.816 160.721 L 105.968 169.145 104.666 169.543 C 99.414 171.146,98.286 175.124,102.539 177.042 C 102.955 177.230,103.263 177.475,103.222 177.586 C 103.086 177.957,100.899 184.684,99.917 187.753 C 98.199 193.118,95.780 197.290,93.696 198.480 L 92.761 199.014 93.569 199.609 C 95.863 201.299,99.911 201.871,102.156 200.822 C 105.148 199.424,107.113 195.022,110.471 182.193 L 111.477 178.351 113.517 178.215 C 114.639 178.141,116.478 177.946,117.602 177.783 C 119.906 177.448,119.647 177.335,120.538 179.059 C 122.110 182.100,122.476 184.033,122.866 191.378 C 123.186 197.414,123.500 199.349,124.516 201.549 C 127.486 207.976,135.642 208.013,141.439 201.625 C 143.027 199.875,143.030 199.812,141.507 200.322 C 136.528 201.992,131.788 200.502,131.773 197.261 C 131.772 197.043,131.434 194.977,131.023 192.669 C 129.594 184.658,128.099 179.885,126.113 176.990 C 125.498 176.093,125.532 175.903,126.342 175.725 C 128.562 175.237,133.453 172.871,136.645 170.741 C 150.940 161.202,152.965 146.254,140.792 140.124 C 137.573 138.503,131.978 137.925,125.492 138.543 M206.211 141.725 C 203.541 142.130,202.513 143.441,200.273 149.297 C 199.879 150.328,199.467 151.269,199.357 151.388 C 198.986 151.790,194.615 152.052,189.410 151.986 L 184.349 151.921 183.565 152.484 C 182.484 153.260,182.038 154.193,182.518 154.673 C 183.627 155.781,190.379 156.704,194.780 156.348 C 198.144 156.077,197.898 155.919,197.277 157.951 C 196.303 161.138,195.637 163.586,194.290 168.937 C 193.160 173.428,192.892 174.283,192.694 174.045 C 192.088 173.315,191.099 173.697,189.118 175.427 C 183.652 180.198,178.961 183.438,174.414 185.581 C 167.145 189.007,160.088 187.567,159.396 182.517 C 159.261 181.534,159.152 181.630,162.137 180.121 C 172.707 174.777,176.460 171.930,177.898 168.164 C 180.745 160.710,169.523 159.471,160.455 166.237 C 149.688 174.269,148.429 186.218,157.895 190.533 C 165.993 194.223,178.796 189.475,189.923 178.654 C 191.342 177.275,192.502 176.221,192.502 176.311 C 192.501 176.402,192.297 177.530,192.048 178.819 C 190.862 184.948,191.790 187.790,195.649 189.840 C 201.329 192.858,207.553 190.348,217.229 181.137 C 219.668 178.816,219.777 178.551,215.800 184.598 C 212.667 189.361,212.458 190.253,214.471 190.253 C 215.785 190.253,216.471 189.654,219.410 185.942 C 220.022 185.169,220.566 184.494,220.618 184.442 C 220.738 184.323,224.285 179.878,227.647 175.633 C 229.075 173.828,230.702 171.777,231.261 171.074 C 232.007 170.135,232.359 169.828,232.586 169.917 C 233.947 170.447,235.213 170.602,237.156 170.475 C 241.092 170.218,241.169 171.628,237.488 176.600 C 236.715 177.644,235.514 179.267,234.820 180.205 C 231.617 184.535,231.440 187.119,234.174 189.640 C 239.396 194.452,248.160 191.231,258.836 180.575 C 260.216 179.197,261.355 178.070,261.366 178.070 C 261.378 178.071,261.401 179.273,261.417 180.741 C 261.501 188.244,264.677 191.557,271.790 191.559 C 278.725 191.562,284.495 187.837,287.457 181.443 C 287.815 180.670,288.170 179.924,288.246 179.786 C 288.321 179.647,289.183 179.259,290.161 178.924 C 295.861 176.970,305.473 171.529,306.657 169.586 C 307.760 167.777,306.220 167.162,304.134 168.579 C 300.443 171.086,291.069 175.445,289.367 175.445 C 289.276 175.445,289.259 174.747,289.330 173.875 C 289.764 168.526,285.963 164.246,279.642 162.965 C 275.384 162.102,269.771 163.856,267.702 166.696 C 267.388 167.127,266.738 167.901,266.258 168.416 C 265.317 169.426,263.355 172.258,263.355 172.608 C 263.355 172.728,263.057 172.821,262.668 172.821 C 262.027 172.821,261.743 173.056,258.497 176.272 C 256.581 178.170,254.677 180.004,254.264 180.348 C 253.852 180.693,253.472 181.017,253.421 181.069 C 252.309 182.194,248.213 185.008,246.315 185.950 C 243.213 187.492,240.257 187.533,239.635 186.043 C 238.832 184.121,239.384 183.143,244.574 177.293 C 247.837 173.616,248.209 172.265,246.804 169.195 C 245.533 166.419,244.242 165.866,239.711 166.161 C 238.192 166.260,237.327 166.236,236.863 166.083 L 236.198 165.864 236.734 165.020 C 238.537 162.176,237.456 158.389,234.621 157.622 C 231.796 156.858,228.618 158.625,226.212 162.300 C 224.632 164.712,224.570 165.984,225.967 167.326 L 226.784 168.110 225.359 170.158 C 223.993 172.120,223.915 172.196,223.493 171.977 C 222.768 171.601,222.118 171.878,220.897 173.083 C 207.835 185.972,200.140 189.520,197.226 183.996 C 196.605 182.820,196.497 179.671,197.047 178.816 C 199.770 174.588,207.031 159.805,207.959 156.600 C 208.137 155.986,208.370 155.377,208.476 155.248 C 208.872 154.766,217.460 155.044,221.823 155.680 C 224.578 156.082,225.459 156.042,226.285 155.481 C 227.214 154.849,227.613 153.668,227.071 153.155 C 226.149 152.282,219.182 151.018,213.502 150.694 C 209.410 150.461,209.898 150.748,210.329 148.828 C 211.062 145.561,211.028 142.502,210.254 141.995 C 209.703 141.635,207.688 141.501,206.211 141.725 M131.771 142.341 C 138.052 143.675,140.851 148.358,139.457 155.197 C 138.079 161.958,132.949 167.604,124.930 171.184 C 121.879 172.545,121.786 172.569,121.157 172.125 C 119.823 171.183,116.379 169.871,114.386 169.545 C 113.948 169.473,113.590 169.330,113.590 169.228 C 113.590 168.654,117.524 154.821,119.503 148.437 C 120.704 144.563,120.670 144.883,119.965 144.080 L 119.405 143.442 121.136 142.953 C 125.035 141.852,128.522 141.651,131.771 142.341 M279.475 150.303 C 279.011 150.377,278.137 150.717,277.532 151.057 C 276.338 151.729,266.642 157.553,266.142 157.900 C 265.909 158.061,266.702 158.108,269.422 158.094 C 273.550 158.074,272.792 158.315,277.344 155.572 L 280.368 153.750 280.906 154.610 C 281.748 155.958,283.585 157.714,284.442 157.991 C 285.581 158.359,289.878 158.470,290.908 158.158 L 291.751 157.904 290.863 157.474 C 289.822 156.970,289.055 156.140,286.659 152.922 C 285.687 151.616,284.749 150.490,284.573 150.419 C 284.103 150.229,280.450 150.145,279.475 150.303 M170.828 166.274 C 172.588 167.659,170.171 171.363,165.722 174.099 C 163.341 175.563,159.901 177.395,159.773 177.267 C 159.600 177.094,160.648 174.252,161.401 172.850 C 164.057 167.906,168.745 164.636,170.828 166.274 M280.599 166.916 C 282.504 167.902,283.639 172.334,282.761 175.365 C 282.302 176.948,282.307 176.945,280.305 176.945 C 275.259 176.945,273.111 175.185,273.035 170.991 C 273.004 169.246,273.062 169.148,274.789 168.036 C 276.873 166.694,279.275 166.231,280.599 166.916 M24.392 169.751 C 21.587 171.149,21.587 175.243,24.392 176.641 L 25.378 177.132 50.833 177.132 L 76.289 177.132 76.289 173.196 L 76.289 169.260 50.833 169.260 L 25.378 169.260 24.392 169.751 M323.711 173.196 L 323.711 177.132 349.167 177.132 L 374.622 177.132 375.608 176.641 C 377.092 175.901,377.601 175.022,377.601 173.196 C 377.601 171.370,377.092 170.491,375.608 169.751 L 374.622 169.260 349.167 169.260 L 323.711 169.260 323.711 173.196 M115.482 173.596 C 116.664 174.105,116.539 174.187,114.002 174.569 L 112.259 174.832 112.376 174.248 C 112.641 172.927,112.615 172.952,113.598 173.068 C 114.096 173.127,114.944 173.365,115.482 173.596 M269.513 177.023 C 271.641 179.843,275.450 181.477,279.241 181.197 C 280.796 181.083,280.759 181.041,280.101 182.177 C 277.390 186.853,272.106 188.970,269.302 186.503 C 267.421 184.846,267.026 181.356,268.258 177.273 C 268.715 175.760,268.580 175.787,269.513 177.023 M108.263 229.007 C 123.705 253.981,148.339 271.624,176.476 277.858 C 221.555 287.847,267.360 268.433,291.737 229.007 L 292.635 227.554 314.452 227.554 C 326.452 227.554,336.270 227.590,336.270 227.633 C 336.270 227.859,333.995 233.068,332.785 235.613 C 302.647 299.017,232.996 332.148,164.773 315.533 C 124.541 305.734,89.659 278.446,70.164 241.518 C 67.957 237.338,63.730 228.216,63.730 227.633 C 63.730 227.590,73.548 227.554,85.548 227.554 L 107.365 227.554 108.263 229.007 M218.441 233.782 C 219.652 234.144,221.078 235.649,221.457 236.966 C 221.939 238.639,221.810 250.590,221.299 251.546 C 218.623 256.560,211.059 254.946,211.059 249.361 L 211.059 248.547 212.722 248.547 L 214.385 248.547 214.479 249.520 C 214.687 251.683,217.314 252.398,218.104 250.506 C 218.579 249.369,218.472 246.417,217.965 246.689 C 216.510 247.467,213.142 246.485,212.016 244.953 C 210.920 243.464,210.642 238.004,211.572 236.246 C 212.765 233.988,215.657 232.951,218.441 233.782 M184.543 234.092 C 186.332 234.904,187.619 237.263,187.356 239.248 C 187.171 240.646,186.874 241.213,183.536 246.548 C 181.870 249.211,180.506 251.425,180.506 251.468 C 180.506 251.511,181.982 251.546,183.786 251.546 L 187.067 251.546 187.067 252.952 L 187.067 254.358 181.912 254.358 L 176.757 254.358 176.757 253.004 L 176.757 251.651 180.135 246.271 C 184.583 239.188,184.868 238.459,183.684 237.198 C 182.123 235.536,180.537 236.993,180.361 240.253 L 180.268 241.987 178.700 241.987 L 177.132 241.987 177.136 239.691 C 177.142 236.516,177.765 235.235,179.798 234.223 C 181.032 233.607,183.337 233.544,184.543 234.092 M196.730 234.184 C 197.936 234.746,198.994 235.974,199.362 237.242 C 199.862 238.962,199.670 250.819,199.125 251.836 C 196.863 256.062,190.128 255.426,189.121 250.890 C 188.696 248.981,188.960 237.346,189.449 236.433 C 190.743 234.013,194.122 232.970,196.730 234.184 M208.810 244.236 L 208.810 254.358 207.125 254.358 L 205.440 254.358 205.391 246.172 L 205.342 237.985 203.702 239.538 L 202.062 241.090 202.062 239.162 L 202.062 237.233 203.702 235.683 L 205.342 234.133 207.076 234.123 L 208.810 234.114 208.810 244.236 M193.499 236.816 C 192.355 237.331,192.315 237.579,192.315 244.142 C 192.315 251.315,192.379 251.546,194.373 251.546 C 196.189 251.546,196.287 251.116,196.214 243.445 C 196.160 237.730,196.142 237.483,195.771 237.112 C 195.269 236.611,194.251 236.478,193.499 236.816 M215.427 236.741 C 214.601 237.073,214.398 237.871,214.465 240.522 L 214.527 242.956 215.139 243.502 C 216.967 245.135,218.369 243.712,218.369 240.224 C 218.369 237.004,217.456 235.923,215.427 236.741 M168.978 242.984 C 170.469 243.403,172.948 244.370,171.978 244.153 C 168.276 243.328,164.172 243.502,157.263 244.778 C 148.279 246.438,143.660 246.520,139.456 245.094 C 138.683 244.832,138.304 244.663,138.613 244.720 C 141.852 245.310,146.472 244.993,152.826 243.745 C 160.857 242.166,165.323 241.956,168.978 242.984 M258.669 242.884 C 260.268 243.317,262.292 244.050,262.184 244.158 C 262.144 244.197,261.822 244.138,261.468 244.027 C 259.172 243.302,253.627 243.631,246.606 244.907 C 239.330 246.230,234.807 246.423,231.115 245.568 C 229.521 245.198,227.407 244.486,228.585 244.715 C 231.719 245.325,236.385 245.007,242.830 243.744 C 250.616 242.220,255.275 241.967,258.669 242.884 M178.924 285.330 C 178.840 285.722,176.222 308.045,176.138 309.084 C 176.106 309.483,179.540 310.276,179.893 309.950 C 179.917 309.928,180.119 308.313,180.341 306.361 C 180.818 302.186,180.650 302.499,182.288 302.734 C 187.946 303.546,189.245 302.309,190.077 295.314 C 190.986 287.687,189.828 286.116,182.755 285.384 C 181.157 285.219,179.662 285.043,179.433 284.995 C 179.114 284.927,178.994 285.006,178.924 285.330 M214.386 286.678 C 212.659 286.806,211.202 286.955,211.148 287.009 C 211.042 287.114,212.463 311.120,212.581 311.237 C 212.909 311.559,220.972 310.741,221.890 310.292 C 224.912 308.813,225.467 301.733,222.748 299.346 L 222.090 298.769 222.662 298.118 C 224.441 296.092,224.063 290.295,222.016 288.212 C 220.438 286.607,219.066 286.331,214.386 286.678 M194.943 287.838 C 194.945 288.444,194.808 292.990,194.640 297.938 C 194.305 307.754,194.308 307.794,195.325 309.330 C 198.047 313.440,205.141 312.461,206.360 307.808 C 206.529 307.162,207.123 292.358,207.123 288.794 L 207.123 287.147 205.295 287.200 L 203.468 287.254 203.147 296.720 C 202.759 308.165,202.720 308.341,200.605 308.341 C 198.046 308.341,198.035 308.283,198.428 296.690 C 198.606 291.449,198.697 287.107,198.631 287.041 C 198.565 286.975,197.708 286.879,196.725 286.828 L 194.939 286.734 194.943 287.838 M185.229 289.056 C 186.786 289.450,186.925 290.207,186.329 295.033 C 185.776 299.516,185.540 299.837,182.955 299.643 C 182.085 299.577,181.331 299.482,181.280 299.431 C 181.188 299.339,181.255 298.690,182.036 292.071 L 182.440 288.640 183.488 288.760 C 184.065 288.827,184.848 288.960,185.229 289.056 M219.025 290.235 C 219.628 290.631,219.881 291.652,219.926 293.873 C 219.985 296.815,219.482 297.389,216.760 297.489 L 215.464 297.536 215.348 295.863 C 215.284 294.942,215.172 293.246,215.098 292.093 L 214.965 289.996 215.683 289.911 C 216.912 289.765,218.550 289.924,219.025 290.235 M220.124 301.276 C 220.574 302.198,220.774 305.520,220.441 306.531 C 220.145 307.429,219.586 307.699,217.689 307.859 L 216.166 307.988 216.059 307.368 C 216.001 307.027,215.900 305.525,215.834 304.030 C 215.769 302.535,215.676 301.170,215.628 300.997 C 215.518 300.602,216.028 300.510,218.182 300.540 L 219.775 300.562 220.124 301.276 " stroke="none" fill="#fbcb2b" fill-rule="evenodd"></path><path id="path1" d="M192.409 26.359 C 139.822 29.616,94.936 58.257,70.242 104.311 C 68.165 108.186,63.730 117.749,63.730 118.354 C 63.730 118.414,73.544 118.463,85.540 118.463 L 107.349 118.463 108.982 115.886 C 132.147 79.319,173.960 60.278,216.682 66.839 C 247.129 71.516,274.242 89.405,291.018 115.886 L 292.651 118.463 314.460 118.463 C 326.456 118.463,336.270 118.414,336.270 118.354 C 336.270 118.294,335.806 117.154,335.238 115.821 C 314.737 67.632,270.277 33.905,218.650 27.376 C 211.681 26.495,198.481 25.983,192.409 26.359 M203.049 34.972 C 204.187 35.360,205.517 36.550,206.148 37.746 L 206.654 38.707 206.592 44.236 C 206.495 52.955,206.332 55.603,205.835 56.568 C 203.520 61.062,196.310 60.756,194.561 56.090 C 193.876 54.260,194.315 39.262,195.099 37.728 C 196.427 35.129,199.939 33.912,203.049 34.972 M219.685 36.375 C 224.333 37.189,225.360 37.743,226.452 40.019 C 227.904 43.047,225.766 50.984,223.498 50.984 C 223.287 50.984,223.376 51.180,223.810 51.675 C 224.552 52.520,225.107 53.699,225.116 54.452 C 225.135 55.948,223.925 61.856,223.600 61.856 C 223.188 61.856,220.400 61.325,220.304 61.228 C 220.264 61.188,220.492 59.699,220.812 57.918 C 221.688 53.034,221.049 51.779,217.632 51.662 L 216.989 51.640 216.227 55.890 C 215.807 58.228,215.404 60.199,215.331 60.272 C 215.181 60.420,211.621 59.821,211.621 59.646 C 211.621 59.430,215.760 36.268,215.840 36.036 C 215.949 35.720,215.949 35.720,219.685 36.375 M182.199 36.546 C 184.765 37.831,185.255 39.059,186.597 47.555 C 187.078 50.597,185.316 52.509,181.366 53.232 C 180.241 53.438,179.301 53.628,179.276 53.654 C 179.251 53.680,179.518 55.300,179.869 57.253 C 180.220 59.206,180.444 60.861,180.366 60.930 C 180.136 61.136,176.870 61.670,176.745 61.523 C 176.556 61.299,172.376 37.496,172.504 37.368 C 172.569 37.303,174.079 36.969,175.861 36.625 C 179.560 35.911,180.897 35.894,182.199 36.546 M199.347 38.457 C 198.367 39.228,198.309 39.620,198.101 46.940 C 197.964 51.752,197.966 53.952,198.108 54.480 C 198.673 56.577,201.533 56.889,202.314 54.939 C 202.707 53.955,203.140 40.581,202.817 39.381 C 202.454 38.034,200.534 37.523,199.347 38.457 M177.882 39.592 C 177.315 39.694,176.832 39.795,176.808 39.816 C 176.784 39.837,177.185 42.207,177.698 45.082 C 178.212 47.957,178.632 50.344,178.632 50.387 C 178.632 50.430,179.117 50.408,179.709 50.339 C 182.975 49.958,183.191 49.408,182.183 44.027 C 181.295 39.283,181.045 39.025,177.882 39.592 M219.119 39.667 C 219.119 39.707,218.783 41.610,218.371 43.896 C 217.960 46.182,217.644 48.069,217.668 48.090 C 218.279 48.611,221.221 48.637,221.687 48.126 C 222.691 47.023,223.633 42.128,223.050 41.039 C 222.739 40.458,219.119 39.194,219.119 39.667 M242.279 41.619 C 248.187 43.603,247.711 43.295,247.211 44.808 C 246.670 46.443,246.737 46.416,244.823 45.774 L 243.130 45.206 242.841 45.986 C 242.683 46.416,241.161 50.892,239.460 55.934 C 237.759 60.976,236.330 65.139,236.284 65.185 C 236.108 65.360,232.591 64.061,232.671 63.851 C 232.951 63.116,239.363 44.103,239.363 44.009 C 239.363 43.944,238.667 43.664,237.816 43.385 C 235.824 42.731,235.875 42.804,236.346 41.252 C 236.839 39.630,236.244 39.593,242.279 41.619 M162.204 41.243 C 163.615 41.771,164.781 42.851,165.373 44.178 C 166.298 46.250,166.339 46.141,164.368 46.826 C 163.418 47.157,162.630 47.405,162.616 47.378 C 162.602 47.351,162.386 46.878,162.136 46.328 C 160.756 43.287,156.942 44.070,157.625 47.253 C 158.431 51.015,159.754 52.373,162.079 51.825 C 164.837 51.176,167.774 52.343,168.867 54.521 C 171.376 59.523,170.690 63.470,167.026 65.114 C 163.166 66.846,159.700 65.467,158.426 61.693 L 158.045 60.564 159.575 60.058 C 160.417 59.779,161.205 59.515,161.327 59.470 C 161.450 59.425,161.779 59.860,162.069 60.452 C 163.338 63.043,166.635 62.959,166.635 60.334 C 166.635 57.139,164.692 54.848,162.356 55.289 C 159.596 55.810,157.059 54.996,155.841 53.198 C 154.890 51.795,153.637 47.754,153.754 46.467 C 154.107 42.569,158.496 39.856,162.204 41.243 M53.421 125.709 C 15.416 129.465,-3.220 173.231,20.607 202.770 C 28.261 212.258,38.803 218.161,51.546 220.096 C 53.902 220.453,346.098 220.453,348.454 220.096 C 359.412 218.432,368.085 214.219,375.512 206.951 C 403.670 179.397,388.719 132.908,349.485 126.017 C 347.778 125.717,56.405 125.414,53.421 125.709 M135.708 138.606 C 149.088 140.652,152.983 153.762,143.486 164.784 C 139.510 169.400,131.307 174.634,126.342 175.725 C 125.532 175.903,125.498 176.093,126.113 176.990 C 128.099 179.885,129.594 184.658,131.023 192.669 C 131.434 194.977,131.772 197.043,131.773 197.261 C 131.788 200.502,136.528 201.992,141.507 200.322 C 143.030 199.812,143.027 199.875,141.439 201.625 C 135.642 208.013,127.486 207.976,124.516 201.549 C 123.500 199.349,123.186 197.414,122.866 191.378 C 122.476 184.033,122.110 182.100,120.538 179.059 C 119.647 177.335,119.906 177.448,117.602 177.783 C 116.478 177.946,114.639 178.141,113.517 178.215 L 111.477 178.351 110.471 182.193 C 107.113 195.022,105.148 199.424,102.156 200.822 C 99.911 201.871,95.863 201.299,93.569 199.609 L 92.761 199.014 93.696 198.480 C 95.780 197.290,98.199 193.118,99.917 187.753 C 100.899 184.684,103.086 177.957,103.222 177.586 C 103.263 177.475,102.955 177.230,102.539 177.042 C 98.286 175.124,99.414 171.146,104.666 169.543 L 105.968 169.145 108.816 160.721 C 110.383 156.087,112.140 150.958,112.721 149.322 C 113.302 147.686,113.777 146.271,113.777 146.177 C 113.777 145.811,107.664 149.633,105.534 151.330 C 104.413 152.223,103.374 151.559,102.078 149.123 C 100.805 146.727,101.422 146.051,107.498 143.186 C 115.234 139.538,128.119 137.446,135.708 138.606 M210.254 141.995 C 211.028 142.502,211.062 145.561,210.329 148.828 C 209.898 150.748,209.410 150.461,213.502 150.694 C 219.182 151.018,226.149 152.282,227.071 153.155 C 227.613 153.668,227.214 154.849,226.285 155.481 C 225.459 156.042,224.578 156.082,221.823 155.680 C 217.460 155.044,208.872 154.766,208.476 155.248 C 208.370 155.377,208.137 155.986,207.959 156.600 C 207.031 159.805,199.770 174.588,197.047 178.816 C 196.497 179.671,196.605 182.820,197.226 183.996 C 200.140 189.520,207.835 185.972,220.897 173.083 C 222.118 171.878,222.768 171.601,223.493 171.977 C 223.915 172.196,223.993 172.120,225.359 170.158 L 226.784 168.110 225.967 167.326 C 224.570 165.984,224.632 164.712,226.212 162.300 C 228.618 158.625,231.796 156.858,234.621 157.622 C 237.456 158.389,238.537 162.176,236.734 165.020 L 236.198 165.864 236.863 166.083 C 237.327 166.236,238.192 166.260,239.711 166.161 C 244.242 165.866,245.533 166.419,246.804 169.195 C 248.209 172.265,247.837 173.616,244.574 177.293 C 239.384 183.143,238.832 184.121,239.635 186.043 C 240.257 187.533,243.213 187.492,246.315 185.950 C 248.213 185.008,252.309 182.194,253.421 181.069 C 253.472 181.017,253.852 180.693,254.264 180.348 C 254.677 180.004,256.581 178.170,258.497 176.272 C 261.743 173.056,262.027 172.821,262.668 172.821 C 263.057 172.821,263.355 172.728,263.355 172.608 C 263.355 172.258,265.317 169.426,266.258 168.416 C 266.738 167.901,267.388 167.127,267.702 166.696 C 269.771 163.856,275.384 162.102,279.642 162.965 C 285.963 164.246,289.764 168.526,289.330 173.875 C 289.259 174.747,289.276 175.445,289.367 175.445 C 291.069 175.445,300.443 171.086,304.134 168.579 C 306.220 167.162,307.760 167.777,306.657 169.586 C 305.473 171.529,295.861 176.970,290.161 178.924 C 289.183 179.259,288.321 179.647,288.246 179.786 C 288.170 179.924,287.815 180.670,287.457 181.443 C 284.495 187.837,278.725 191.562,271.790 191.559 C 264.677 191.557,261.501 188.244,261.417 180.741 C 261.401 179.273,261.378 178.071,261.366 178.070 C 261.355 178.070,260.216 179.197,258.836 180.575 C 248.160 191.231,239.396 194.452,234.174 189.640 C 231.440 187.119,231.617 184.535,234.820 180.205 C 235.514 179.267,236.715 177.644,237.488 176.600 C 241.169 171.628,241.092 170.218,237.156 170.475 C 235.213 170.602,233.947 170.447,232.586 169.917 C 232.359 169.828,232.007 170.135,231.261 171.074 C 230.702 171.777,229.075 173.828,227.647 175.633 C 224.285 179.878,220.738 184.323,220.618 184.442 C 220.566 184.494,220.022 185.169,219.410 185.942 C 216.471 189.654,215.785 190.253,214.471 190.253 C 212.458 190.253,212.667 189.361,215.800 184.598 C 219.777 178.551,219.668 178.816,217.229 181.137 C 207.553 190.348,201.329 192.858,195.649 189.840 C 191.790 187.790,190.862 184.948,192.048 178.819 C 192.297 177.530,192.501 176.402,192.502 176.311 C 192.502 176.221,191.342 177.275,189.923 178.654 C 178.796 189.475,165.993 194.223,157.895 190.533 C 148.429 186.218,149.688 174.269,160.455 166.237 C 171.806 157.767,184.239 162.451,175.371 171.856 C 173.298 174.053,169.729 176.283,162.137 180.121 C 159.152 181.630,159.261 181.534,159.396 182.517 C 160.088 187.567,167.145 189.007,174.414 185.581 C 178.961 183.438,183.652 180.198,189.118 175.427 C 191.099 173.697,192.088 173.315,192.694 174.045 C 192.892 174.283,193.160 173.428,194.290 168.937 C 195.637 163.586,196.303 161.138,197.277 157.951 C 197.898 155.919,198.144 156.077,194.780 156.348 C 190.379 156.704,183.627 155.781,182.518 154.673 C 182.038 154.193,182.484 153.260,183.565 152.484 L 184.349 151.921 189.410 151.986 C 194.615 152.052,198.986 151.790,199.357 151.388 C 199.467 151.269,199.879 150.328,200.273 149.297 C 201.831 145.223,203.349 142.603,204.408 142.161 C 205.929 141.525,209.385 141.427,210.254 141.995 M124.367 142.183 C 123.543 142.338,122.089 142.684,121.136 142.953 L 119.405 143.442 119.965 144.080 C 120.670 144.883,120.704 144.563,119.503 148.437 C 117.524 154.821,113.590 168.654,113.590 169.228 C 113.590 169.330,113.948 169.473,114.386 169.545 C 116.379 169.871,119.823 171.183,121.157 172.125 C 121.786 172.569,121.879 172.545,124.930 171.184 C 135.144 166.624,141.193 157.747,139.646 149.587 C 138.600 144.072,131.824 140.789,124.367 142.183 M284.573 150.419 C 284.749 150.490,285.687 151.616,286.659 152.922 C 289.055 156.140,289.822 156.970,290.863 157.474 L 291.751 157.904 290.908 158.158 C 289.878 158.470,285.581 158.359,284.442 157.991 C 283.585 157.714,281.748 155.958,280.906 154.610 L 280.368 153.750 277.344 155.572 C 272.792 158.315,273.550 158.074,269.422 158.094 C 266.702 158.108,265.909 158.061,266.142 157.900 C 266.642 157.553,276.338 151.729,277.532 151.057 C 279.016 150.222,283.160 149.847,284.573 150.419 M167.479 166.423 C 164.509 167.843,161.532 171.621,160.169 175.699 C 159.545 177.569,159.505 177.554,161.832 176.323 C 168.341 172.878,171.305 170.133,171.317 167.539 C 171.325 165.847,169.684 165.370,167.479 166.423 M276.851 166.958 C 275.903 167.288,273.719 168.640,273.290 169.163 C 272.945 169.584,272.946 172.062,273.292 173.297 C 273.956 175.669,276.409 176.945,280.305 176.945 C 282.307 176.945,282.302 176.948,282.761 175.365 C 283.639 172.334,282.504 167.902,280.599 166.916 C 279.897 166.553,277.954 166.575,276.851 166.958 M76.289 173.196 L 76.289 177.132 50.833 177.132 L 25.378 177.132 24.392 176.641 C 21.587 175.243,21.587 171.149,24.392 169.751 L 25.378 169.260 50.833 169.260 L 76.289 169.260 76.289 173.196 M375.608 169.751 C 377.092 170.491,377.601 171.370,377.601 173.196 C 377.601 175.022,377.092 175.901,375.608 176.641 L 374.622 177.132 349.167 177.132 L 323.711 177.132 323.711 173.196 L 323.711 169.260 349.167 169.260 L 374.622 169.260 375.608 169.751 M112.593 173.313 C 112.538 173.506,112.440 173.927,112.376 174.248 L 112.259 174.832 114.002 174.569 C 116.539 174.187,116.664 174.105,115.482 173.596 C 114.062 172.986,112.723 172.854,112.593 173.313 M268.258 177.273 C 267.026 181.356,267.421 184.846,269.302 186.503 C 272.106 188.970,277.390 186.853,280.101 182.177 C 280.759 181.041,280.796 181.083,279.241 181.197 C 275.450 181.477,271.641 179.843,269.513 177.023 C 268.580 175.787,268.715 175.760,268.258 177.273 M63.730 227.633 C 63.730 227.859,66.010 233.080,67.254 235.702 C 88.801 281.118,132.014 312.477,181.537 318.634 C 244.877 326.509,305.360 293.310,332.785 235.613 C 333.995 233.068,336.270 227.859,336.270 227.633 C 336.270 227.590,326.452 227.554,314.452 227.554 L 292.635 227.554 291.737 229.007 C 276.295 253.981,251.661 271.624,223.524 277.858 C 178.445 287.847,132.640 268.433,108.263 229.007 L 107.365 227.554 85.548 227.554 C 73.548 227.554,63.730 227.590,63.730 227.633 M214.321 233.754 C 213.527 233.985,212.068 235.307,211.572 236.246 C 210.642 238.004,210.920 243.464,212.016 244.953 C 213.142 246.485,216.510 247.467,217.965 246.689 C 218.472 246.417,218.579 249.369,218.104 250.506 C 217.314 252.398,214.687 251.683,214.479 249.520 L 214.385 248.547 212.722 248.547 L 211.059 248.547 211.059 249.361 C 211.059 254.946,218.623 256.560,221.299 251.546 C 221.810 250.590,221.939 238.639,221.457 236.966 C 220.695 234.319,217.432 232.851,214.321 233.754 M179.798 234.223 C 177.765 235.235,177.142 236.516,177.136 239.691 L 177.132 241.987 178.700 241.987 L 180.268 241.987 180.361 240.253 C 180.537 236.993,182.123 235.536,183.684 237.198 C 184.868 238.459,184.583 239.188,180.135 246.271 L 176.757 251.651 176.757 253.004 L 176.757 254.358 181.912 254.358 L 187.067 254.358 187.067 252.952 L 187.067 251.546 183.786 251.546 C 181.982 251.546,180.506 251.511,180.506 251.468 C 180.506 251.425,181.870 249.211,183.536 246.548 C 186.874 241.213,187.171 240.646,187.356 239.248 C 187.879 235.294,183.496 232.380,179.798 234.223 M192.168 233.975 C 191.333 234.243,189.953 235.489,189.449 236.433 C 188.960 237.346,188.696 248.981,189.121 250.890 C 190.128 255.426,196.863 256.062,199.125 251.836 C 199.670 250.819,199.862 238.962,199.362 237.242 C 198.566 234.504,195.236 232.992,192.168 233.975 M203.702 235.683 L 202.062 237.233 202.062 239.162 L 202.062 241.090 203.702 239.538 L 205.342 237.985 205.391 246.172 L 205.440 254.358 207.125 254.358 L 208.810 254.358 208.810 244.236 L 208.810 234.114 207.076 234.123 L 205.342 234.133 203.702 235.683 M195.771 237.112 C 196.167 237.508,196.485 248.226,196.155 250.021 C 195.831 251.778,193.409 252.181,192.598 250.613 C 192.170 249.786,192.179 238.482,192.608 237.652 C 193.169 236.568,194.926 236.268,195.771 237.112 M217.405 236.818 C 218.824 237.552,218.813 242.760,217.391 243.756 C 216.723 244.224,215.835 244.124,215.139 243.502 L 214.527 242.956 214.465 240.522 C 214.375 236.950,215.331 235.746,217.405 236.818 M158.824 242.642 C 157.878 242.786,155.179 243.282,152.826 243.745 C 146.472 244.993,141.852 245.310,138.613 244.720 C 138.304 244.663,138.683 244.832,139.456 245.094 C 143.660 246.520,148.279 246.438,157.263 244.778 C 164.172 243.502,168.276 243.328,171.978 244.153 C 172.948 244.370,170.469 243.403,168.978 242.984 C 166.857 242.387,161.649 242.212,158.824 242.642 M248.828 242.640 C 247.901 242.783,245.201 243.280,242.830 243.744 C 236.385 245.007,231.719 245.325,228.585 244.715 C 227.407 244.486,229.521 245.198,231.115 245.568 C 234.807 246.423,239.330 246.230,246.606 244.907 C 253.627 243.631,259.172 243.302,261.468 244.027 C 262.546 244.367,262.327 244.112,261.166 243.675 C 257.917 242.452,252.821 242.025,248.828 242.640 M182.755 285.384 C 189.828 286.116,190.986 287.687,190.077 295.314 C 189.245 302.309,187.946 303.546,182.288 302.734 C 180.650 302.499,180.818 302.186,180.341 306.361 C 180.119 308.313,179.917 309.928,179.893 309.950 C 179.540 310.276,176.106 309.483,176.138 309.084 C 176.222 308.045,178.840 285.722,178.924 285.330 C 178.994 285.006,179.114 284.927,179.433 284.995 C 179.662 285.043,181.157 285.219,182.755 285.384 M220.350 287.051 C 222.566 288.059,223.400 289.550,223.667 292.977 C 223.882 295.738,223.633 297.013,222.662 298.118 L 222.090 298.769 222.748 299.346 C 223.903 300.360,224.197 301.254,224.317 304.110 C 224.551 309.691,223.546 310.614,216.768 311.045 C 214.504 311.189,212.620 311.275,212.581 311.237 C 212.463 311.120,211.042 287.114,211.148 287.009 C 211.737 286.420,219.036 286.453,220.350 287.051 M198.631 287.041 C 198.697 287.107,198.606 291.449,198.428 296.690 C 198.035 308.283,198.046 308.341,200.605 308.341 C 202.720 308.341,202.759 308.165,203.147 296.720 L 203.468 287.254 205.295 287.200 L 207.123 287.147 207.123 288.794 C 207.123 292.358,206.529 307.162,206.360 307.808 C 205.141 312.461,198.047 313.440,195.325 309.330 C 194.308 307.794,194.305 307.754,194.640 297.938 C 194.808 292.990,194.945 288.444,194.943 287.838 L 194.939 286.734 196.725 286.828 C 197.708 286.879,198.565 286.975,198.631 287.041 M182.036 292.071 C 181.255 298.690,181.188 299.339,181.280 299.431 C 181.331 299.482,182.085 299.577,182.955 299.643 C 185.540 299.837,185.776 299.516,186.329 295.033 C 187.019 289.449,186.883 289.150,183.488 288.760 L 182.440 288.640 182.036 292.071 M215.683 289.911 L 214.965 289.996 215.098 292.093 C 215.172 293.246,215.284 294.942,215.348 295.863 L 215.464 297.536 216.760 297.489 C 219.482 297.389,219.985 296.815,219.926 293.873 C 219.852 290.189,219.118 289.504,215.683 289.911 M216.065 300.600 C 215.683 300.660,215.565 300.768,215.628 300.997 C 215.676 301.170,215.769 302.535,215.834 304.030 C 215.900 305.525,216.001 307.027,216.059 307.368 L 216.166 307.988 217.689 307.859 C 219.586 307.699,220.145 307.429,220.441 306.531 C 220.774 305.520,220.574 302.198,220.124 301.276 L 219.775 300.562 218.182 300.540 C 217.306 300.528,216.353 300.555,216.065 300.600 " stroke="none" fill="#241c1c" fill-rule="evenodd"></path></g></svg>